<?xml version="1.0" encoding="utf-8"?>
<!-- Generator: Adobe Illustrator 22.1.0, SVG Export Plug-In . SVG Version: 6.00 Build 0)  -->
<svg version="1.1" id="Слой_1" xmlns="http://www.w3.org/2000/svg" xmlns:xlink="http://www.w3.org/1999/xlink" x="0px" y="0px"
	 viewBox="0 0 968.8 211.3" style="enable-background:new 0 0 968.8 211.3;" xml:space="preserve">
<style type="text/css">
	.st0{enable-background:new    ;}
	.st1{fill:#2BA7D2;}
	.st2{fill:#444445;}
	.st3{fill:#3C70CE;}
</style>
<g class="st0">
	<path class="st1" d="M86.1,324.5c6.9,0,11.1,6.4,11.1,15.2c0,8.6-4.2,15.1-11.1,15.1S75,348.4,75,339.7
		C75,330.9,79.2,324.5,86.1,324.5z M86.1,330c-2.9,0-5,3.3-5,9.7c0,6.3,2.2,9.6,5,9.6c3,0,5.2-3.3,5.2-9.6
		C91.3,333.3,89.2,330,86.1,330z M107.9,337.7h5.9v5.1h-5.9v21.1h-6.2v-42h6.2V337.7z"/>
</g>
<g class="st0">
	<path class="st2" d="M151.4,363.5v-13.9H135v-3.4h37.2v3.4h-16.6v13.9H151.4z M139.5,341.2v-16.7h28.1v16.7H139.5z M163.5,327.9
		h-19.7v10h19.7V327.9z"/>
	<path class="st2" d="M194.3,352.6v-25.2h8.7v3.4h-4.8v18.3c1.1,0.1,3.8-0.2,5.2-0.6l0.6,3.3C201.6,352.4,198.1,352.6,194.3,352.6z
		 M205.1,352.6v-25.2h9v3.4h-5v18.3c1.7,0,4.2-0.4,5.8-0.9l0.6,3.3C213,352.2,209.1,352.6,205.1,352.6z M224.6,363.4v-21.1h-4.1
		v19.1h-3.9v-38.3h3.9v15.8h4.1v-16.7h4v41.2H224.6z"/>
	<path class="st2" d="M256.5,352.8c-1.3,0-2.6,0-3.8,0v-26.6h4.2v23c4.9,0,14-0.6,18.8-1.8c0.2,1.2,0.4,2.3,0.6,3.4
		C271.5,352.1,262.2,352.7,256.5,352.8z M283.2,338.3h6.6v3.5h-6.6v21.6H279v-41.2h4.2V338.3z"/>
</g>
<g class="st0">
	<path class="st1" d="M331.9,345v-19.7h19.9V345H331.9z M336.3,362.7v-13.4h6.2v8.4h22.2v4.9h-28.4V362.7z M345.7,330.2h-7.6v9.9
		h7.6V330.2z M363.9,333.7h5.9v5.1h-5.9v13.5h-6.2v-30.5h6.2V333.7z"/>
</g>
<g class="st0">
	<path class="st2" d="M395.9,352.8c-1.3,0-2.6,0-3.8,0v-26.6h4.2v23c4.9,0,14-0.6,18.8-1.8c0.2,1.2,0.4,2.3,0.6,3.4
		C410.9,352.1,401.6,352.7,395.9,352.8z M422.6,338.3h6.6v3.5h-6.6v21.6h-4.2v-41.2h4.2V338.3z"/>
	<path class="st2" d="M449,346.6v-3.4h37.2v3.4H449z M453.9,362.6v-12.2h4.2v8.8h24.2v3.4L453.9,362.6L453.9,362.6z M454.1,338.3
		v-14.4h4.2v11h23.9v3.4H454.1z"/>
</g>
<g class="st0">
	<path class="st2" d="M532.8,352.4h-4v-25.6h4.2v22.1c4,0,10.3-0.4,13.1-1.2c0.2,1.1,0.4,2.3,0.6,3.4
		C543.8,351.8,537.9,352.3,532.8,352.4z M558.1,363.4v-21.7h-5v19.7h-4v-38.3h4v15.2h5v-16.1h4v41.2L558.1,363.4L558.1,363.4z"/>
</g>
<g class="st0">
	<path class="st2" d="M604.2,347.2v-3.4h16.5v-6.2h4.2v6.2h16.6v3.4H604.2z M637.8,340c-6.3-1.1-13-5.6-15-9.8
		c-1.7,4.2-8.1,8.7-14.8,9.8l-1.9-3.2c6.9-0.7,14.6-5.8,14.6-11.7v-1.5h4.3v1.5c0,5.9,8.6,11.1,14.7,11.7L637.8,340z M608.7,362.2
		v-11.9h4.2v8.5h24.2v3.4H608.7z"/>
	<path class="st2" d="M685,335.6c0,6.1-4.7,10.2-11,10.2c-6.4,0-11.1-4.1-11.1-10.1c0-6.1,4.7-10.5,11-10.5S685,329.6,685,335.6z
		 M667.2,335.6c0,4,2.8,6.7,6.8,6.7c4.1,0,6.7-2.7,6.7-6.7s-2.6-6.9-6.7-6.9C670,328.7,667.2,331.6,667.2,335.6z M668.1,362.1v-12.9
		h4.2v9.5h23.3v3.4H668.1z M694.2,337.7v14.4H690v-30h4.2v12h6.2v3.5h-6.2V337.7z"/>
	<path class="st2" d="M733.2,354.2c-4.7,0.2-9,0.3-12.3,0.4l-0.7-3.6c4,0,8.8,0,13.6-0.3c5.9-0.2,10.7-0.6,14-0.9l0.4,3.3
		C744.6,353.5,738.5,353.9,733.2,354.2z M733.8,344.6c-6.1,0-10.8-3.8-10.8-9.4c0-5.7,4.7-9.7,10.8-9.7s10.8,3.8,10.8,9.7
		C744.6,340.9,739.8,344.6,733.8,344.6z M733.8,329c-3.6,0-6.6,2.6-6.6,6.2c0,3.5,3,5.9,6.6,5.9s6.7-2.4,6.7-5.9
		C740.5,331.4,737.5,329,733.8,329z M754.7,322.2v41.2h-4.1v-41.2H754.7z"/>
</g>
<g class="st0">
	<path class="st1" d="M823.5,338.3l0.5,4.8c-3.7,0.7-11.3,1.5-19.3,1.5c-1.2,0-2.3,0-3.6,0v-19.9H820v4.9h-12.6v10
		C812.9,339.6,819.4,339.2,823.5,338.3z M832.9,348.4v15.5h-6.2v-10.6h-21.6v-4.9H832.9z M832.8,337.3v9.1h-6.3v-24.5h6.3v10.4h5.9
		v5H832.8z"/>
</g>
<g class="st0">
	<path class="st2" d="M866.5,350.3c6.4,0,13-0.4,17.2-1.3l0.6,3.4c-4.3,0.9-11.2,1.3-18.8,1.4h-4.2V326H881v3.4h-15.5v8h13.7v3.4
		h-13.7v9.6h1V350.3z M889.6,363.4v-22.2h-8v-3.5h8v-15.5h4.2v41.2H889.6z"/>
</g>
<text transform="matrix(0.9768 0 0 1 4.882812e-04 -95.2051)" style="fill:#231F20; font-family:'SDByeolpyo-aBasic-KSCpc-EUC-H'; font-size:277.2411px; letter-spacing:-12.3;">aman</text>
<text transform="matrix(0.9768 0 0 1 587.6436 -95.2051)" style="fill:#466FB5; font-family:'SDByeolpyo-aBasic-KSCpc-EUC-H'; font-size:276.6725px; letter-spacing:-12.3;">doc</text>
<g>
	<g>
		<path d="M92.4,83.5c8.5,7.4,12.8,18.7,12.8,34v54.3H73.3v-12.6c-4.9,9.5-14.6,14.3-28.9,14.3c-7.6,0-14.1-1.3-19.7-4
			c-5.5-2.6-9.7-6.2-12.5-10.7c-2.8-4.5-4.2-9.7-4.2-15.4c0-9.3,3.5-16.5,10.6-21.6c7.1-5.1,18-7.7,32.8-7.7h19.5
			c-0.6-10.3-7.5-15.5-20.8-15.5c-4.7,0-9.4,0.8-14.3,2.3c-4.8,1.5-8.9,3.6-12.3,6.2L12.1,83.7c5.4-3.6,12-6.4,19.8-8.4
			c7.8-2,15.5-3,23.4-3C71.5,72.4,83.9,76.1,92.4,83.5z M64.4,148.9c3-1.9,5.2-4.8,6.5-8.5v-8.5H56.1c-10,0-15,3.3-15,9.9
			c0,3,1.1,5.4,3.4,7.2c2.3,1.8,5.4,2.7,9.4,2.7C57.9,151.8,61.4,150.8,64.4,148.9z"/>
		<path d="M283.1,83.2c7.2,7.2,10.7,18.1,10.7,32.7v55.9h-34.3v-50.4c0-6.9-1.3-11.9-3.9-15.2c-2.6-3.2-6.2-4.9-10.9-4.9
			c-5.2,0-9.3,1.8-12.5,5.4c-3.1,3.6-4.7,9.1-4.7,16.4v48.5h-34.3v-50.4c0-13.4-4.9-20-14.8-20c-5.3,0-9.5,1.8-12.6,5.4
			c-3.1,3.6-4.7,9.1-4.7,16.4v48.5h-34.3V74h32.7v10.3c3.6-4,7.9-6.9,12.9-8.9c5-2,10.4-3,16.3-3c6.9,0,13,1.3,18.4,3.8
			c5.4,2.5,9.8,6.4,13.2,11.6c3.8-4.9,8.7-8.7,14.6-11.4c5.9-2.6,12.3-4,19.3-4C266.3,72.4,275.9,76,283.1,83.2z"/>
		<path d="M394.4,83.5c8.5,7.4,12.8,18.7,12.8,34v54.3h-31.9v-12.6c-4.9,9.5-14.6,14.3-28.9,14.3c-7.6,0-14.1-1.3-19.7-4
			c-5.5-2.6-9.7-6.2-12.5-10.7c-2.8-4.5-4.2-9.7-4.2-15.4c0-9.3,3.5-16.5,10.6-21.6c7.1-5.1,18-7.7,32.8-7.7h19.5
			c-0.6-10.3-7.5-15.5-20.8-15.5c-4.7,0-9.4,0.8-14.3,2.3c-4.8,1.5-8.9,3.6-12.3,6.2L314,83.7c5.4-3.6,12-6.4,19.8-8.4
			c7.8-2,15.5-3,23.4-3C373.4,72.4,385.8,76.1,394.4,83.5z M366.4,148.9c3-1.9,5.2-4.8,6.5-8.5v-8.5h-14.8c-10,0-15,3.3-15,9.9
			c0,3,1.1,5.4,3.4,7.2c2.3,1.8,5.4,2.7,9.4,2.7C359.9,151.8,363.4,150.8,366.4,148.9z"/>
		<path d="M521.9,83.2c7.4,7.2,11.1,18.1,11.1,32.7v55.9h-34.3v-50.4c0-13.4-5.4-20-16.1-20c-5.9,0-10.6,1.9-14.2,5.8
			c-3.5,3.9-5.3,9.6-5.3,17.3v47.3h-34.3V74h32.7v10.6c3.8-4,8.4-7,13.7-9.1c5.3-2.1,11.1-3.2,17.3-3.2
			C504.7,72.4,514.5,76,521.9,83.2z"/>
		<path d="M659.8,37.9v133.9h-32.7V162c-6.4,7.6-15.9,11.4-28.7,11.4c-8.9,0-17-2.1-24.4-6.2c-7.3-4.2-13.1-10.1-17.4-17.8
			c-4.3-7.7-6.4-16.6-6.4-26.7c0-10.1,2.1-19,6.4-26.6c4.3-7.6,10.1-13.5,17.4-17.6c7.3-4.1,15.5-6.1,24.4-6.1
			c11.7,0,20.7,3.4,27.1,10.1V37.9H659.8z M620.3,139.9c3.8-4.2,5.8-9.9,5.8-17.2c0-7.2-1.9-12.9-5.7-17c-3.8-4.1-8.7-6.1-14.7-6.1
			c-6,0-10.9,2-14.8,6.1c-3.9,4.1-5.8,9.7-5.8,17c0,7.3,1.9,13.1,5.8,17.2c3.8,4.2,8.8,6.2,14.8,6.2
			C611.6,146.2,616.5,144.1,620.3,139.9z"/>
		<path d="M702.6,166.9c-8.4-4.3-15-10.3-19.8-18c-4.8-7.7-7.1-16.4-7.1-26.2c0-9.6,2.4-18.3,7.1-26c4.8-7.7,11.3-13.7,19.7-18
			c8.4-4.3,17.8-6.4,28.4-6.4c10.6,0,20.1,2.1,28.5,6.4c8.4,4.3,15,10.2,19.7,17.9c4.7,7.6,7,16.3,7,26.1c0,9.7-2.3,18.5-7,26.2
			c-4.7,7.7-11.3,13.7-19.7,18c-8.4,4.3-17.9,6.5-28.5,6.5C720.5,173.4,711,171.3,702.6,166.9z M745.7,139.9
			c3.8-4.2,5.8-9.9,5.8-17.2c0-7.2-1.9-12.9-5.8-17c-3.9-4.1-8.8-6.1-14.8-6.1c-6,0-10.9,2-14.8,6.1c-3.9,4.1-5.8,9.7-5.8,17
			c0,7.3,1.9,13.1,5.8,17.2c3.8,4.2,8.8,6.2,14.8,6.2C737,146.2,741.9,144.1,745.7,139.9z"/>
		<path d="M823,166.9c-8.5-4.3-15.2-10.3-19.9-18c-4.8-7.7-7.1-16.4-7.1-26.2c0-9.7,2.4-18.4,7.1-26.1C807.8,89,814.4,83,823,78.8
			c8.5-4.3,18.2-6.4,29.1-6.4c11.1,0,20.6,2.4,28.7,7.1c8.1,4.8,13.8,11.3,17.1,19.8l-26.5,13.5c-4.5-8.8-10.9-13.2-19.5-13.2
			c-6.1,0-11.2,2-15.3,6.1c-4,4.1-6,9.7-6,17c0,7.3,2,13.1,6,17.2c4,4.2,9.1,6.2,15.3,6.2c8.5,0,15-4.4,19.5-13.2l26.5,13.5
			c-3.4,8.4-9.1,15-17.1,19.8c-8.1,4.8-17.6,7.1-28.7,7.1C841.2,173.4,831.5,171.3,823,166.9z"/>
	</g>
	<circle class="st3" cx="941.1" cy="152" r="19.8"/>
</g>
</svg>
